<?xml version="1.0" standalone="no"?>
<!DOCTYPE svg PUBLIC "-//W3C//DTD SVG 20010904//EN"
 "http://www.w3.org/TR/2001/REC-SVG-20010904/DTD/svg10.dtd">
<svg version="1.0" xmlns="http://www.w3.org/2000/svg"
 width="732.000000pt" height="732.000000pt" viewBox="0 0 732.000000 732.000000"
 preserveAspectRatio="xMidYMid meet">
<metadata>
Created by potrace 1.11, written by Peter Selinger 2001-2013
</metadata>
<g transform="translate(0.000000,732.000000) scale(0.100000,-0.100000)"
fill="#000000" stroke="none">
<path d="M2241 6093 c-19 -21 -77 -85 -130 -141 -53 -57 -97 -108 -99 -112 -2
-5 16 -19 40 -31 24 -12 45 -24 48 -28 3 -3 21 -15 40 -25 44 -24 323 -206
330 -215 3 -4 21 -18 40 -31 107 -74 232 -182 371 -322 l107 -108 35 43 c20
23 47 56 62 72 14 17 47 54 73 84 26 30 64 73 84 95 21 23 38 44 38 48 0 8
-10 18 -95 93 -38 33 -76 67 -85 75 -29 26 -113 94 -175 140 -33 25 -62 48
-65 51 -8 10 -290 193 -345 224 -44 25 -236 125 -239 125 -1 0 -16 -17 -35
-37z"/>
<path d="M1245 4675 c-71 -75 -131 -137 -133 -139 -2 -2 14 -14 35 -27 52 -31
302 -197 333 -221 14 -11 77 -58 141 -106 119 -90 175 -133 213 -165 11 -10
63 -53 114 -95 50 -42 92 -80 92 -84 0 -4 6 -8 13 -8 7 0 24 -12 38 -27 14
-16 39 -41 57 -57 l31 -29 161 159 c88 87 160 164 160 170 0 6 -19 24 -42 39
-49 32 -145 102 -170 125 -24 21 -38 32 -78 60 -19 13 -41 30 -47 36 -7 7 -70
54 -140 105 -71 51 -130 96 -133 99 -8 8 -229 154 -302 198 -84 52 -183 102
-200 102 -7 0 -71 -61 -143 -135z"/>
<path d="M5727 4610 c-15 -16 -27 -32 -27 -35 0 -3 -9 -16 -20 -28 -52 -59
-78 -89 -110 -128 -82 -100 -282 -305 -441 -450 -86 -79 -159 -143 -293 -254
-131 -109 -452 -349 -586 -438 -30 -20 -59 -40 -65 -45 -24 -18 -273 -180
-295 -192 -14 -7 -27 -16 -30 -20 -3 -3 -42 -28 -88 -56 -46 -27 -100 -59
-120 -72 -20 -12 -53 -31 -72 -42 -19 -11 -51 -30 -70 -42 -19 -11 -53 -31
-75 -42 -22 -12 -51 -29 -65 -38 -99 -63 -769 -398 -795 -398 -2 0 -28 -11
-57 -24 -46 -21 -78 -34 -98 -41 -3 -1 -16 -7 -30 -12 -80 -35 -235 -93 -375
-140 -160 -54 -471 -143 -499 -143 -8 0 -17 -4 -21 -10 -6 -10 290 -460 303
-460 34 1 382 136 612 237 110 49 587 289 715 361 281 158 529 304 562 332 7
5 15 10 18 10 12 0 523 332 738 480 125 85 380 271 437 316 8 7 60 48 115 90
55 43 102 81 105 84 3 3 28 23 55 44 28 22 57 47 66 55 9 9 36 32 60 53 68 56
86 72 199 176 110 102 128 120 255 254 92 96 158 170 197 220 15 19 39 47 53
64 54 61 61 41 -64 183 -31 35 -77 87 -103 115 -26 28 -48 54 -48 59 0 15 -18
6 -43 -23z"/>
</g>
</svg>
